{"title":"Battle Of The Year 2013 CAM XViD UNiQUE ","uid":8980255,"size":1498384187,"categoryP":"video","categoryS":"movies","magnet":"?xt=urn:btih:114f3013fcc6c430df909ea051d11d6040fc01bc&amp;dn=Battle+Of+The+Year+2013+CAM+XViD+UNiQUE+&amp;tr=udp%3A%2F%2Ftracker.openbittorrent.com%3A80&amp;tr=udp%3A%2F%2Fopen.demonii.com%3A1337&amp;tr=udp%3A%2F%2Ftracker.coppersurfer.tk%3A6969&amp;tr=udp%3A%2F%2Fexodus.desync.com%3A6969","seeders":9,"leechers":2,"uploader":"srkfan","files":4,"time":1380547003,"description":" &lt;a href=&quot;http://img713.imageshack.us/img713/3920/3uzo.jpg&quot; rel=&quot;nofollow&quot; target=&quot;_NEW&quot;&gt;http://img713.imageshack.us/img713/3920/3uzo.jpg&lt;/a&gt;\n\nFormat: AVI\nFormat/Info: Audio Video Interleave\nFile size: 1.39 GiB\nDuration: 1h 47mn\nOverall bit rate: 1 847 Kbps\nWriting application: VirtualDubMod 1.5.10.2 (build 2540/release)\nWriting library: VirtualDubMod build 2540/release\n\nVideo\nID: 0\nFormat: MPEG-4 Visual\nFormat profile: Advanced Simple@L5\nFormat settings, BVOP: 2\nFormat settings, QPel: No\nFormat settings, GMC: No warppoints\nFormat settings, Matrix: Default (H.263)\nMuxing mode: Packed bitstream\nCodec ID: XVID\nCodec ID/Hint: XviD\nDuration: 1h 47mn\nBit rate: 1 707 Kbps\nWidth: 714 pixels\nHeight: 362 pixels\nDisplay aspect ratio: 1.972\nFrame rate: 29.970 fps\nColor space: YUV\nChroma subsampling: 4:2:0\nBit depth: 8 bits\nScan type: Progressive\nCompression mode: Lossy\nBits/(Pixel*Frame): 0.220\nStream size: 1.28 GiB (92%)\nWriting library: XviD 64\n\nAudio\nID: 1\nFormat: AC-3\nFormat/Info: Audio Coding 3\nMode extension: CM (complete main)\nFormat settings, Endianness: Big\nCodec ID: 2000\nDuration: 1h 47mn\nBit rate mode: Constant\nBit rate: 128 Kbps\nChannel(s): 2 channels\nChannel positions: Front: L R\nSampling rate: 48.0 KHz\nBit depth: 16 bits\nCompression mode: Lossy\nStream size: 98.6 MiB (7%)\nAlignment: Split accross interleaves\nInterleave, duration: 33 ms (1.00 video frame)\nInterleave, preload duration: 500 ms \n &lt;a href=&quot;\nhttp://www.imdb.com/title/tt1532958/&quot; rel=&quot;nofollow&quot; target=&quot;_NEW&quot;&gt;\nhttp://www.imdb.com/title/tt1532958/&lt;/a&gt;\n\nBattle of the Year attracts all the best teams from around the world, but the Americans haven't won in fifteen years. Dante enlists Blake to assemble a team of the best dancers and bring the Trophy back to America where it started\n\nSource Used Blacktop - Thanks\n\nGreets now going out to !\n\nJUSTiCE,KiSSMYACE and the rest can just KMA :lol:\n\nNever did alot another good vid from blacktop,just cropeed resized,deinterlace and sharpened\n\n &lt;a href=&quot;\nhttp://img546.imageshack.us/img546/2381/0j5a.png&quot; rel=&quot;nofollow&quot; target=&quot;_NEW&quot;&gt;\nhttp://img546.imageshack.us/img546/2381/0j5a.png&lt;/a&gt; &lt;a href=&quot;\nhttp://img208.imageshack.us/img208/2333/5bra.png&quot; rel=&quot;nofollow&quot; target=&quot;_NEW&quot;&gt;\nhttp://img208.imageshack.us/img208/2333/5bra.png&lt;/a&gt; &lt;a href=&quot;\nhttp://img41.imageshack.us/img41/2051/ftb1.png&quot; rel=&quot;nofollow&quot; target=&quot;_NEW&quot;&gt;\nhttp://img41.imageshack.us/img41/2051/ftb1.png&lt;/a&gt;\n","torrent":{"xt":"urn:btih:114f3013fcc6c430df909ea051d11d6040fc01bc","amp;dn":"Battle+Of+The+Year+2013+CAM+XViD+UNiQUE+","amp;tr":["udp%3A%2F%2Ftracker.openbittorrent.com%3A80","udp%3A%2F%2Fopen.demonii.com%3A1337","udp%3A%2F%2Ftracker.coppersurfer.tk%3A6969","udp%3A%2F%2Fexodus.desync.com%3A6969"],"infoHash":"114f3013fcc6c430df909ea051d11d6040fc01bc","infoHashBuffer":{"type":"Buffer","data":[17,79,48,19,252,198,196,48,223,144,158,160,81,209,29,96,64,252,1,188]},"announce":[],"urlList":[]}}